<svg width="24" height="24" viewBox="0 0 24 24" fill="none" xmlns="http://www.w3.org/2000/svg">
<path fill-rule="evenodd" clip-rule="evenodd" d="M4.92912 4.92891C5.31965 4.53838 5.95281 4.53838 6.34334 4.92891L19.0713 17.6568C19.4618 18.0474 19.4618 18.6805 19.0713 19.071C18.6807 19.4616 18.0476 19.4616 17.657 19.071L4.92912 6.34312C4.5386 5.9526 4.5386 5.31943 4.92912 4.92891Z" fill="#1F1F1F"/>
<path fill-rule="evenodd" clip-rule="evenodd" d="M4.92912 4.92891C5.31965 4.53838 5.95281 4.53838 6.34334 4.92891L19.0713 17.6568C19.4618 18.0474 19.4618 18.6805 19.0713 19.071C18.6807 19.4616 18.0476 19.4616 17.657 19.071L4.92912 6.34312C4.5386 5.9526 4.5386 5.31943 4.92912 4.92891Z" fill="#7437FF" fill-opacity="0.05"/>
<path fill-rule="evenodd" clip-rule="evenodd" d="M19.0712 4.92888C19.4617 5.3194 19.4617 5.95257 19.0712 6.34309L6.34329 19.071C5.95277 19.4615 5.3196 19.4615 4.92908 19.071C4.53855 18.6805 4.53855 18.0473 4.92908 17.6568L17.657 4.92888C18.0475 4.53836 18.6807 4.53836 19.0712 4.92888Z" fill="#1F1F1F"/>
<path fill-rule="evenodd" clip-rule="evenodd" d="M19.0712 4.92888C19.4617 5.3194 19.4617 5.95257 19.0712 6.34309L6.34329 19.071C5.95277 19.4615 5.3196 19.4615 4.92908 19.071C4.53855 18.6805 4.53855 18.0473 4.92908 17.6568L17.657 4.92888C18.0475 4.53836 18.6807 4.53836 19.0712 4.92888Z" fill="#7437FF" fill-opacity="0.05"/>
</svg>
