<svg width="24" height="24" viewBox="0 0 24 24" fill="none" xmlns="http://www.w3.org/2000/svg">
<path d="M2.35079 10.1783C2.31123 9.70361 2.5449 9.2477 2.95335 9.00263L10.8569 4.26051C11.2527 4.023 11.7473 4.023 12.1431 4.26051L20.0466 9.00263C20.4551 9.2477 20.6888 9.70361 20.6492 10.1783L19.9054 19.1038C19.8514 19.7517 19.3098 20.25 18.6597 20.25H4.34027C3.69015 20.25 3.14857 19.7517 3.09458 19.1038L2.35079 10.1783Z" stroke="#666666" stroke-width="1.5" stroke-linecap="round" stroke-linejoin="round"/>
<path d="M2.35079 10.1783C2.31123 9.70361 2.5449 9.2477 2.95335 9.00263L10.8569 4.26051C11.2527 4.023 11.7473 4.023 12.1431 4.26051L20.0466 9.00263C20.4551 9.2477 20.6888 9.70361 20.6492 10.1783L19.9054 19.1038C19.8514 19.7517 19.3098 20.25 18.6597 20.25H4.34027C3.69015 20.25 3.14857 19.7517 3.09458 19.1038L2.35079 10.1783Z" stroke="#7437FF" stroke-opacity="0.05" stroke-width="1.5" stroke-linecap="round" stroke-linejoin="round"/>
<path d="M11.5938 12.75C13.6648 12.75 15.3438 14.4289 15.3438 16.5V20.25H7.84375V16.5C7.84375 14.4289 9.52268 12.75 11.5938 12.75Z" stroke="#666666" stroke-width="1.5"/>
<path d="M11.5938 12.75C13.6648 12.75 15.3438 14.4289 15.3438 16.5V20.25H7.84375V16.5C7.84375 14.4289 9.52268 12.75 11.5938 12.75Z" stroke="#7437FF" stroke-opacity="0.05" stroke-width="1.5"/>
</svg>
