<svg width="20" height="20" viewBox="0 0 20 20" fill="none" xmlns="http://www.w3.org/2000/svg">
<path d="M10.6798 17.1731C14.0423 15.4585 16.6666 12.6191 16.6666 9.16667C16.6666 5.48477 13.6818 2.5 9.99992 2.5C6.31802 2.5 3.33325 5.48477 3.33325 9.16667C3.33325 12.6191 5.95749 15.4585 9.32 17.1731C9.74725 17.3909 10.2526 17.3909 10.6798 17.1731Z" stroke="#666666" stroke-width="1.5" stroke-linecap="round" stroke-linejoin="round"/>
<path d="M10.6798 17.1731C14.0423 15.4585 16.6666 12.6191 16.6666 9.16667C16.6666 5.48477 13.6818 2.5 9.99992 2.5C6.31802 2.5 3.33325 5.48477 3.33325 9.16667C3.33325 12.6191 5.95749 15.4585 9.32 17.1731C9.74725 17.3909 10.2526 17.3909 10.6798 17.1731Z" stroke="#7437FF" stroke-opacity="0.05" stroke-width="1.5" stroke-linecap="round" stroke-linejoin="round"/>
<path d="M12.5 9.16669C12.5 10.5474 11.3807 11.6667 10 11.6667C8.61925 11.6667 7.5 10.5474 7.5 9.16669C7.5 7.78598 8.61925 6.66669 10 6.66669C11.3807 6.66669 12.5 7.78598 12.5 9.16669Z" stroke="#666666" stroke-width="1.5" stroke-linecap="round" stroke-linejoin="round"/>
<path d="M12.5 9.16669C12.5 10.5474 11.3807 11.6667 10 11.6667C8.61925 11.6667 7.5 10.5474 7.5 9.16669C7.5 7.78598 8.61925 6.66669 10 6.66669C11.3807 6.66669 12.5 7.78598 12.5 9.16669Z" stroke="#7437FF" stroke-opacity="0.05" stroke-width="1.5" stroke-linecap="round" stroke-linejoin="round"/>
</svg>
